<svg xmlns="http://www.w3.org/2000/svg" viewBox="0 0 64 64" fill="#AC8129" aria-label="Nexus Eirene">
  <g transform="translate(0, 15)">
    <path d="M32 2c3 7 3 16 0 26-3-10-3-19 0-26z"/>
    <path d="M30 30C22 26 15 24 6 26c6-7 14-9 23-6 0 4 .5 7 1 10z" opacity=".8"/>
    <path d="M34 30c8-4 15-6 24-4-6-7-14-9-23-6 0 4-.5 7-1 10z" opacity=".8"/>
    <path d="M28 31C22 23 18 17 16 9c8 3 13 9 14 17 0 2-1 4-2 5z" opacity=".6"/>
    <path d="M36 31c6-8 10-14 12-22-8 3-13 9-14 17 0 2 1 4 2 5z" opacity=".6"/>
  </g>
</svg>
